<svg xmlns="http://www.w3.org/2000/svg">

    <symbol id="instagram"  viewBox="0 0 551.034 551.034">
<g>

		<linearGradient id="SVGID_1_" gradientUnits="userSpaceOnUse" x1="275.517" y1="4.57" x2="275.517" y2="549.72" gradientTransform="matrix(1 0 0 -1 0 554)">
		<stop  offset="0"/>
            <stop  offset="0.3"/>
            <stop  offset="0.6"/>
            <stop  offset="1"/>
	</linearGradient>
    <path d="M386.878,0H164.156C73.64,0,0,73.64,0,164.156v222.722
		c0,90.516,73.64,164.156,164.156,164.156h222.722c90.516,0,164.156-73.64,164.156-164.156V164.156
		C551.033,73.64,477.393,0,386.878,0z M495.6,386.878c0,60.045-48.677,108.722-108.722,108.722H164.156
		c-60.045,0-108.722-48.677-108.722-108.722V164.156c0-60.046,48.677-108.722,108.722-108.722h222.722
		c60.045,0,108.722,48.676,108.722,108.722L495.6,386.878L495.6,386.878z"/>

    <linearGradient id="SVGID_2_" gradientUnits="userSpaceOnUse" x1="275.517" y1="4.57" x2="275.517" y2="549.72" gradientTransform="matrix(1 0 0 -1 0 554)">
		<stop  offset="0" />
        <stop  offset="0.3" />
        <stop  offset="0.6" />
        <stop  offset="1" />
	</linearGradient>
    <path d="M275.517,133C196.933,133,133,196.933,133,275.516s63.933,142.517,142.517,142.517
		S418.034,354.1,418.034,275.516S354.101,133,275.517,133z M275.517,362.6c-48.095,0-87.083-38.988-87.083-87.083
		s38.989-87.083,87.083-87.083c48.095,0,87.083,38.988,87.083,87.083C362.6,323.611,323.611,362.6,275.517,362.6z"/>

    <linearGradient id="SVGID_3_" gradientUnits="userSpaceOnUse" x1="418.31" y1="4.57" x2="418.31" y2="549.72" gradientTransform="matrix(1 0 0 -1 0 554)">
		<stop  offset="0" />
        <stop  offset="0.3" />
        <stop  offset="0.6" />
        <stop  offset="1" />
	</linearGradient>
    <circle cx="418.31" cy="134.07" r="34.15"/>
</g>
        <g>
</g>
        <g>
</g>
        <g>
</g>
        <g>
</g>
        <g>
</g>
        <g>
</g>
        <g>
</g>
        <g>
</g>
        <g>
</g>
        <g>
</g>
        <g>
</g>
        <g>
</g>
        <g>
</g>
        <g>
</g>
        <g>
</g>
    </symbol>

    <symbol id="facebook" viewBox="0 0 455.73 455.73">
<path d="M0,0v455.73h242.704V279.691h-59.33v-71.864h59.33v-60.353c0-43.893,35.582-79.475,79.475-79.475
	h62.025v64.622h-44.382c-13.947,0-25.254,11.307-25.254,25.254v49.953h68.521l-9.47,71.864h-59.051V455.73H455.73V0H0z"/>
        <g>
</g>
        <g>
</g>
        <g>
</g>
        <g>
</g>
        <g>
</g>
        <g>
</g>
        <g>
</g>
        <g>
</g>
        <g>
</g>
        <g>
</g>
        <g>
</g>
        <g>
</g>
        <g>
</g>
        <g>
</g>
        <g>
</g>
</symbol>

    <symbol id="linkedin" viewBox="0 0 455.731 455.731">
<g>
	<rect x="0" y="0"  width="455.731" height="455.731"/>
    <g>
		<path  style="fill: #9a9a9a;" d="M107.255,69.215c20.873,0.017,38.088,17.257,38.043,38.234c-0.05,21.965-18.278,38.52-38.3,38.043
			c-20.308,0.411-38.155-16.551-38.151-38.188C68.847,86.319,86.129,69.199,107.255,69.215z"/>
        <path  style="fill: #9a9a9a;" d="M129.431,386.471H84.71c-5.804,0-10.509-4.705-10.509-10.509V185.18
			c0-5.804,4.705-10.509,10.509-10.509h44.721c5.804,0,10.509,4.705,10.509,10.509v190.783
			C139.939,381.766,135.235,386.471,129.431,386.471z"/>
        <path  style="fill: #9a9a9a;" d="M386.884,241.682c0-39.996-32.423-72.42-72.42-72.42h-11.47c-21.882,0-41.214,10.918-52.842,27.606
			c-1.268,1.819-2.442,3.708-3.52,5.658c-0.373-0.056-0.594-0.085-0.599-0.075v-23.418c0-2.409-1.953-4.363-4.363-4.363h-55.795
			c-2.409,0-4.363,1.953-4.363,4.363V382.11c0,2.409,1.952,4.362,4.361,4.363l57.011,0.014c2.41,0.001,4.364-1.953,4.364-4.363
			V264.801c0-20.28,16.175-37.119,36.454-37.348c10.352-0.117,19.737,4.031,26.501,10.799c6.675,6.671,10.802,15.895,10.802,26.079
			v117.808c0,2.409,1.953,4.362,4.361,4.363l57.152,0.014c2.41,0.001,4.364-1.953,4.364-4.363V241.682z"/>
	</g>
</g>
        <g>
</g>
        <g>
</g>
        <g>
</g>
        <g>
</g>
        <g>
</g>
        <g>
</g>
        <g>
</g>
        <g>
</g>
        <g>
</g>
        <g>
</g>
        <g>
</g>
        <g>
</g>
        <g>
</g>
        <g>
</g>
        <g>
</g>
</symbol>

    <symbol id="google-plus" viewBox="0 0 455.73 455.73">
<path style="fill: #d0aa8c;" d="M0,0v455.73h455.73V0H0z M265.67,247.037c-7.793,51.194-45.961,80.543-95.376,80.543
	c-55.531,0-100.552-45.021-100.552-100.552c0-55.517,45.021-100.538,100.552-100.538c26.862,0,50.399,9.586,67.531,26.226
	l-28.857,28.857c-9.773-9.846-23.147-15.094-38.674-15.094c-32.688,0-59.189,27.874-59.189,60.548
	c0,32.703,26.501,59.768,59.189,59.768c27.397,0,48.144-13.243,54.129-39.758h-54.129v-40.38h95.131
	c1.142,6.506,1.72,13.315,1.72,20.37C267.144,234.025,266.638,240.69,265.67,247.037z M386.419,234.517h-35.233v35.218H326.16
	v-35.218h-35.233v-25.041h35.233v-35.233h25.026v35.233h35.233V234.517z"/>
        <g>
</g>
        <g>
</g>
        <g>
</g>
        <g>
</g>
        <g>
</g>
        <g>
</g>
        <g>
</g>
        <g>
</g>
        <g>
</g>
        <g>
</g>
        <g>
</g>
        <g>
</g>
        <g>
</g>
        <g>
</g>
        <g>
</g>
</symbol>

    <symbol id="close" viewBox="0 0 16 16">
    <rect x="1.0625" y="0.140625" width="20" height="1.5" rx="0.75" transform="rotate(45 1.0625 0.140625)"/>
    <rect x="0.0625" y="14.1406" width="20" height="1.5" rx="0.75" transform="rotate(-45 0.0625 14.1406)"/>

    </symbol>


</svg>
